<?xml version="1.0" encoding="utf-8"?>
<!-- Generator: Adobe Illustrator 25.2.1, SVG Export Plug-In . SVG Version: 6.00 Build 0)  -->
<svg version="1.1" id="Layer_1" xmlns="http://www.w3.org/2000/svg" xmlns:xlink="http://www.w3.org/1999/xlink" x="0px" y="0px"
	 viewBox="0 0 294.9 127.1" style="enable-background:new 0 0 294.9 127.1;" xml:space="preserve">
<style type="text/css">
	.st0{fill:#24812A;}
	.st1{fill:#474C41;}
</style>
<g transform="translate(1486.535 276.457)">
	<g transform="translate(15.814 9.645)">
		<path class="st0" d="M-1490.4-236.2l-12-6.9v-13.8l12-6.9l12,6.9v13.8L-1490.4-236.2z"/>
		<path class="st0" d="M-1464.4-236.2l-12-6.9v-13.8l12-6.9l12,6.9v13.8L-1464.4-236.2z"/>
		<path class="st0" d="M-1477.4-258.5l-12-6.9v-13.8l12-6.9l12,6.9v13.8L-1477.4-258.5z"/>
		<path class="st0" d="M-1490.4-236.2l-12-6.9v-13.8l12-6.9l12,6.9v13.8L-1490.4-236.2z"/>
		<path class="st0" d="M-1464.4-236.2l-12-6.9v-13.8l12-6.9l12,6.9v13.8L-1464.4-236.2z"/>
		<path class="st0" d="M-1477.4-258.5l-12-6.9v-13.8l12-6.9l12,6.9v13.8L-1477.4-258.5z"/>
		<g transform="translate(60.893 6.451)">
			<path class="st1" d="M-1449.2-249.5h-9.3l10.1-36.1h14.1l10.2,36.1h-9.5l-2.6-9.1h-10.3L-1449.2-249.5L-1449.2-249.5z
				 M-1441.6-280.3l-3.7,15.1h7.8l-3.7-15.1H-1441.6z"/>
			<path class="st1" d="M-1502.3-249.5v-36.1h9.1v36.1H-1502.3z"/>
			<path class="st1" d="M-1476.4-249.1c-4.7,0-7.8-0.1-12.4-0.4v-36.1c4.6-0.3,7.5-0.4,12.4-0.4c12.2,0,17.5,5.2,17.5,16.5v3.7
				C-1458.9-254.2-1464-249.1-1476.4-249.1z M-1467.9-269.6c0-7.7-2.4-9.7-8.5-9.7h-3.7v23.3h3.7c6.1,0,8.5-2.2,8.5-9.9V-269.6z"/>
		</g>
		<g transform="translate(152.47 5.38)">
			<path class="st1" d="M-1502.3-248.5v-36.1h4.5v36.1H-1502.3z"/>
			<path class="st1" d="M-1489-269.7v21.3h-4.3v-26.7h4.3v2.1c2.5-2,5.8-2.8,9.5-2.8v3.9C-1483-272-1487-271-1489-269.7z"/>
			<path class="st1" d="M-1473.8-260.2v0.5c0,4.6,0.7,8.1,8.1,8.1c3.1,0,6.3-0.3,9.3-0.8v3.5c-3.1,0.8-6.3,1.1-9.5,1.1
				c-9.5,0-12.3-4.2-12.3-12.9v-2c0-8.4,3.7-13.2,11.3-13.2c7.9,0,11.5,4.7,11.5,13.7v1.9H-1473.8z M-1459.9-264.3
				c0-3.3-0.7-7.8-6.9-7.8c-6.1,0-7,4.5-7,7.8v0.5h13.9L-1459.9-264.3z"/>
			<path class="st1" d="M-1451.3-248.5v-37.6h4.3v37.6H-1451.3z"/>
			<path class="st1" d="M-1426.8-248.5v-1.8c-2.5,1.7-5.5,2.5-8.5,2.5c-5,0-8-2.2-8-7.6v-1c0-7,4.8-8.3,12.3-8.3h4v-2
				c0-4.6-0.9-5.6-6.3-5.6c-2.8,0-5.5,0.2-8.3,0.6v-3.1c2.8-0.8,5.7-1.2,8.6-1.2c8.9,0,10.3,3.3,10.3,9.3v18.1L-1426.8-248.5z
				 M-1427-261.3h-4c-5.6,0-7.9,0.7-7.9,5v1.3c0,3,1.9,3.8,4.5,3.8c2.6-0.1,5.2-0.8,7.4-2.1V-261.3z"/>
			<path class="st1" d="M-1400.6-248.5v-17.1c0-4.9-0.8-6.6-4.5-6.6c-2.1,0-4.9,0.8-8.4,2.4v21.3h-4.3v-26.7h4.3v2.1
				c3.1-1.6,5.9-2.8,8.9-2.8c7.1,0,8.4,3.8,8.4,10.4v17.1H-1400.6z"/>
			<path class="st1" d="M-1374.6-248.5v-1.4c-2.3,1.3-4.9,2-7.5,2c-6.3,0-10-3.5-10-11.4v-4.6c0-9.6,4.8-12.1,11-12.1
				c2.1,0,4.2,0.2,6.3,0.7v-10.9h4.4v37.7H-1374.6z M-1374.7-271.6c-2-0.4-4-0.6-6-0.6c-4.3,0-7,1.2-7,8.4v4.6
				c0,5.3,1.9,7.7,6.4,7.7c2.3,0,4.5-0.6,6.5-1.7V-271.6z"/>
		</g>
	</g>
</g>
</svg>
