<svg id="a85a0d64-4243-46d3-9ea2-420c8b3b8963" data-name="Layer 1" 
  xmlns="http://www.w3.org/2000/svg" viewBox="0 0 50 50">
  <defs>
    <style>
      .a4e0af41-84f4-4f8e-babc-a22377216fc8 {
        fill: #5b5b5d;
      }

      .b98d3232-6b6e-4fcb-bba5-232e735bbe35 {
        fill: #3f3f41;
      }

      .a1dee2dc-d368-42db-9cef-27d2484f8182 {
        fill: #e2e3e4;
      }

      .e3cf3922-c7eb-4ae6-8008-dd906606f4c4 {
        fill: #737379;
      }

      .b6840201-2b6e-4651-94a1-487075f8e64a {
        fill: #babcc1;
      }

      .e71b913d-ee47-4a3a-9900-9e8b16d20cfa {
        fill: #d3d4d5;
      }

      .aa1f2488-0f35-4b1f-a80a-ae1d3d5d0e6d {
        fill: #909196;
      }

      .ac541592-b78b-490b-a95d-026534620342 {
        fill: #c2c3c4;
      }
    </style>
  </defs>
  <g>
    <path class="a4e0af41-84f4-4f8e-babc-a22377216fc8" d="M8.4,23.7a16.7,16.7,0,0,1,3.9-9.6L6.4,8.2A25.4,25.4,0,0,0,0,23.7Z"/>
    <path class="b98d3232-6b6e-4fcb-bba5-232e735bbe35" d="M14.1,12.3a16.7,16.7,0,0,1,9.6-3.9V0A25.4,25.4,0,0,0,8.2,6.4Z"/>
    <path class="a1dee2dc-d368-42db-9cef-27d2484f8182" d="M26.3,0V8.4a16.7,16.7,0,0,1,9.6,3.9l5.9-5.9A25.4,25.4,0,0,0,26.3,0Z"/>
    <path class="e3cf3922-c7eb-4ae6-8008-dd906606f4c4" d="M12.3,35.9a16.7,16.7,0,0,1-3.9-9.6H0A25.4,25.4,0,0,0,6.4,41.8Z"/>
    <path class="b6840201-2b6e-4651-94a1-487075f8e64a" d="M35.9,37.7a16.7,16.7,0,0,1-9.6,3.9V50a25.4,25.4,0,0,0,15.5-6.4Z"/>
    <path class="e71b913d-ee47-4a3a-9900-9e8b16d20cfa" d="M37.7,14.1a16.7,16.7,0,0,1,3.9,9.6H50A25.4,25.4,0,0,0,43.6,8.2Z"/>
    <path class="aa1f2488-0f35-4b1f-a80a-ae1d3d5d0e6d" d="M23.7,41.6a16.7,16.7,0,0,1-9.6-3.9L8.2,43.6A25.4,25.4,0,0,0,23.7,50Z"/>
    <path class="ac541592-b78b-490b-a95d-026534620342" d="M41.6,26.3a16.7,16.7,0,0,1-3.9,9.6l5.9,5.9A25.4,25.4,0,0,0,50,26.3Z"/>
  </g>
</svg>
